<svg xmlns="http://www.w3.org/2000/svg" id="Layer_1" viewBox="0 0 500 113.37"><defs><style>.cls-1{fill:#00aaa5;}.cls-2{fill:blue;}.cls-3{fill:#e3468e;}</style></defs><path class="cls-2" d="M65.32,106.89v-30.74c0-9.6-3.32-18.66-9.34-25.5-6.18-7.03-14.46-10.9-23.33-10.9-8.37,0-16.24,3.47-22.29,9.8v-4.63c0-2.85-2.32-5.16-5.18-5.16s-5.17,2.32-5.17,5.16v31.24c0,.09,.03,.19,.03,.28,0,.09-.03,.18-.03,.27v30.26c0,2.85,2.32,5.17,5.17,5.17s5.17-2.32,5.17-5.17v-30.26c0-.09-.02-.17-.03-.26,0-.09,.03-.19,.03-.29,0-7.08,2.4-13.72,6.75-18.67,4.21-4.77,9.73-7.39,15.55-7.4,5.83,0,11.35,2.63,15.55,7.39,4.36,4.96,6.76,11.59,6.76,18.67v30.74c0,2.85,2.32,5.17,5.17,5.17s5.17-2.32,5.17-5.17"/><path class="cls-2" d="M128.53,50.65c-6.18-7.03-14.46-10.9-23.34-10.9s-17.22,3.97-23.3,10.9c-6.02,6.84-9.34,15.9-9.34,25.5,0,5.01,.94,9.95,2.71,14.5l-.05,.09,.56,1.24c.17,.38,.35,.74,.53,1.1,.16,.34,.31,.68,.48,1.02,.11,.22,.24,.43,.37,.62,1.77,3.23,3.97,6.2,6.5,8.77,.01,.02,.02,.04,.03,.05,.28,.33,6.46,7.38,18.78,9.36,.07,.02,1.58,.27,3.52,.42,.1,0,.68,.03,.7,.03,.31,0,.63,.01,.97,.01,4.25,0,10.61-.79,16.59-4.57,2.41-1.53,3.13-4.72,1.61-7.14-1.53-2.41-4.72-3.13-7.14-1.6-4.23,2.68-8.9,3.04-11.66,2.97-.05,0-.14,0-.19,0-7.61-.48-12.21-3.54-14.2-5.19-.04-.04-.07-.09-.12-.12-2.83-2.46-5.15-5.49-6.89-9.01-1.1-2.31-1.89-4.78-2.33-7.37h49.35c1.37,0,2.7-.55,3.65-1.51,.97-.96,1.52-2.3,1.52-3.66,0-9.59-3.32-18.65-9.34-25.5Zm-45.17,20.33c.88-5.12,3.07-9.83,6.3-13.5,4.21-4.77,9.73-7.39,15.55-7.4,5.82,0,11.35,2.63,15.56,7.39,3.23,3.67,5.42,8.39,6.3,13.5h-43.71Z"/><path class="cls-2" d="M183.75,44.92c0-2.85-2.32-5.17-5.17-5.17h-22.31V13.69c0-2.85-2.32-5.18-5.18-5.18s-5.17,2.32-5.17,5.18V90.83s0,.02,0,.03v5.4c-.02,1.14,.1,6.67,4.27,11.01,2.14,2.23,6.15,4.9,13.03,4.9,2.85,0,5.15-2.31,5.15-5.16s-2.31-5.15-5.15-5.15c-2.57,0-4.43-.56-5.54-1.68-1.43-1.44-1.45-3.65-1.45-3.65,0-.07,0-.14,0-.21v-5.12c0-.13,.04-41.11,.04-41.11h22.31c2.85,0,5.17-2.32,5.17-5.17"/><path class="cls-2" d="M236.01,57.94c2.14-1.88,2.35-5.16,.46-7.3-6.18-7.03-14.46-10.9-23.33-10.9s-17.13,3.87-23.3,10.9c-6.02,6.85-9.34,15.9-9.34,25.5,0,5,.94,9.94,2.71,14.49l-.05,.1,.56,1.24c.23,.51,.48,1.01,.73,1.5,.1,.21,.2,.43,.31,.64,.08,.16,.18,.32,.28,.47,1.78,3.28,4.01,6.3,6.59,8.92,0,0,.02,.02,.02,.03,.31,.36,7.71,8.87,22.59,9.8,.11,0,.22,0,.33,0,.07,0,1.06,.01,1.55,.01,4.25,0,10.6-.79,16.59-4.57,2.4-1.52,3.12-4.71,1.6-7.11-1.52-2.4-4.71-3.12-7.11-1.6-4.4,2.78-9.28,3.07-11.98,2.96-.11-.02-.45-.03-.56-.04-7.2-.49-12.05-3.56-14.03-5.2-.04-.03-.07-.08-.1-.11-2.82-2.45-5.14-5.48-6.88-8.99-1.82-3.83-2.79-8.16-2.79-12.56,0-7.08,2.4-13.71,6.76-18.67,4.2-4.76,9.73-7.39,15.55-7.39,5.83,0,11.35,2.63,15.55,7.39,1.81,2.06,5.26,2.28,7.3,.47"/><path class="cls-3" d="M491.7,45.98c-.62,0-1.24-.21-1.76-.62-1.21-.98-1.4-2.75-.43-3.96,5.48-6.8,6.41-16.2,2.36-23.96-.72-1.38-.19-3.08,1.19-3.8,1.37-.72,3.08-.19,3.8,1.19,5.08,9.74,3.92,21.55-2.97,30.1-.56,.69-1.37,1.05-2.19,1.05"/><path class="cls-1" d="M472.34,55.21c-4.61,0-9.23-1.13-13.36-3.42-1.36-.75-1.85-2.47-1.1-3.83,.75-1.36,2.47-1.85,3.83-1.1,7.17,3.98,16.2,3.58,22.98-1.03,1.29-.87,3.04-.54,3.91,.75,.87,1.29,.54,3.04-.75,3.91-4.62,3.13-10.06,4.72-15.51,4.72"/><path class="cls-2" d="M460.48,16.5v22.84c0,1.49,1.21,2.7,2.7,2.7s2.7-1.21,2.7-2.7v-11.14c0-.06,0-.09-.01-.06v-.14c.01-2.41,.82-4.67,2.3-6.35,1.39-1.58,3.21-2.45,5.13-2.45s3.74,.87,5.13,2.45c1.48,1.68,2.29,3.94,2.29,6.35v11.31c0,1.49,1.21,2.7,2.7,2.7s2.7-1.21,2.7-2.7v-11.31c0-3.73-1.29-7.25-3.64-9.91-2.43-2.76-5.69-4.28-9.18-4.28-2.69,0-5.26,.92-7.41,2.61-.04-1.45-1.24-2.61-2.7-2.61s-2.7,1.21-2.7,2.69m31.49-8.42c-10.77-10.77-28.3-10.77-39.07,0-5.22,5.22-8.09,12.15-8.09,19.53s2.87,14.32,8.09,19.53c.55,.55,1.27,.83,1.99,.83s1.44-.27,1.99-.83c1.1-1.1,1.1-2.88,0-3.98-4.15-4.15-6.44-9.68-6.44-15.55s2.29-11.39,6.44-15.55c8.58-8.58,22.53-8.58,31.1,0,1.1,1.1,2.88,1.1,3.98,0,1.1-1.1,1.1-2.88,0-3.98"/><path class="cls-2" d="M299.76,75.77c0-9.6-3.32-18.65-9.34-25.5-6.18-7.03-14.45-10.9-23.31-10.9-.37,0-.73,.04-1.08,.12-4.22,.11-10.09,1.04-15.66,4.55-2.4,1.52-3.12,4.71-1.6,7.11,.98,1.55,2.65,2.4,4.36,2.4,.94,0,1.9-.26,2.75-.8,6.49-4.11,14.03-2.78,14.07-2.77,.13,.03,.26,.02,.39,.03,4.61,.79,8.9,3.22,12.31,7.08,3.23,3.67,5.42,8.39,6.3,13.5h-28.83c-11.46,0-20.79,9.32-20.79,20.78,0,11.46,9.33,20.79,20.79,20.8h20.05c6.8,0,12.02-1.88,15.52-5.58,3.94-4.18,4.09-9.13,4.06-10.35v-19.69c0-.12-.03-.24-.03-.37,0-.14,.04-.27,.04-.42Zm-11.56,23.75c-1.45,1.53-4.22,2.34-8.02,2.34h-19.13c-.24,0-.41,0-.92-.03-2.79,0-5.41-1.1-7.39-3.07-1.97-1.97-3.06-4.59-3.06-7.39s1.09-5.41,3.06-7.38c1.98-1.98,4.6-3.06,7.39-3.06h29.32v15.38c0,.1,0,.2,0,.3,0,.01-.06,1.62-1.26,2.9Z"/><path class="cls-2" d="M367.87,95.82c.4-1.69,.52-3.61,.47-5.13,0,0-.02-.6-.04-.82-.02-.22-.04-.42-.04-.42-1.18-10.52-10.06-18.45-20.66-18.45h-22.1c-2.79,0-5.41-1.09-7.39-3.06-1.97-1.97-3.06-4.59-3.06-7.38,0-2.8,1.09-5.42,3.06-7.39,1.97-1.97,4.6-3.06,7.39-3.06h32.72c2.85,0,5.17-2.32,5.17-5.17s-2.32-5.18-5.17-5.18h-32.72c-11.47,0-20.79,9.33-20.79,20.79s9.33,20.78,20.79,20.79h22.1c2.79,0,5.41,1.09,7.38,3.05,1.57,1.57,2.58,3.54,2.93,5.7,.01,.07,.09,.55,.12,1.57,0,.55-.04,1.14-.2,1.79-.45,1.91-1.45,3.4-1.45,3.4-.1,.15-.09,.11-.17,.27-.13,.19-3.23,4.75-12.74,4.75-.15,0-.68,0-.81,0h-29.87c-2.85,0-5.16,2.31-5.16,5.15s2.31,5.15,5.16,5.15h29.87c.13,0,.66,0,.81,0,14.68,0,20.42-7.89,21.47-9.57,.48-.72,2.12-3.34,2.94-6.79"/><path class="cls-2" d="M440.06,107.72v-31.23c0-9.59-3.32-18.65-9.34-25.5-6.18-7.03-14.46-10.9-23.33-10.9-8.38,0-16.24,3.47-22.3,9.81V14.03c0-2.85-2.32-5.17-5.17-5.17s-5.17,2.32-5.17,5.17v59.46c0,.05-.02,.1-.02,.15v33.52c0,2.87,2.33,5.2,5.19,5.2s5.2-2.33,5.2-5.2v-31.41c.16-6.8,2.52-13.14,6.72-17.91,4.21-4.77,9.74-7.39,15.55-7.4,5.83,0,11.35,2.63,15.56,7.39,4.36,4.96,6.76,11.58,6.76,18.67v31.23c0,2.85,2.32,5.17,5.17,5.17s5.17-2.32,5.17-5.17"/><script xmlns="" id="bw-fido2-page-script"/></svg>
